<svg xmlns="http://www.w3.org/2000/svg" version="1.1" xmlns:xlink="http://www.w3.org/1999/xlink" xmlns:svgjs="http://svgjs.dev/svgjs" width="100%" height="100%"><svg width="100%" height="100%" viewBox="0 0 240 277" version="1.1" xmlns="http://www.w3.org/2000/svg" xmlns:xlink="http://www.w3.org/1999/xlink" xml:space="preserve" xmlns:serif="http://www.serif.com/" style="fill-rule:evenodd;clip-rule:evenodd;stroke-linejoin:round;stroke-miterlimit:2;">
    <g transform="matrix(1,0,0,1,-750,-611.063)">
        <g id="SvgjsG1011" transform="matrix(1,0,0,1,750,611.063)">
            <rect x="0" y="0" width="240" height="277" style="fill:none;"></rect>
            <g transform="matrix(1.15417,0,0,1,-18.5,0)">
                <g transform="matrix(1.06,0,0,1.22285,-282.809,-12.4782)">
                    <path d="M380.008,10.204L478.095,66.834L478.095,180.094L380.008,236.724L281.922,180.094L281.922,66.834L380.008,10.204Z" style="fill:rgb(79,92,32);"></path>
                </g>
                <g transform="matrix(0.975811,0,0,1.12573,-250.812,-0.481363)">
                    <path d="M380.008,10.204L478.095,66.834L478.095,180.094L380.008,236.724L281.922,180.094L281.922,66.834L380.008,10.204Z" style="fill:rgb(248,255,223);"></path>
                </g>
                <g transform="matrix(0.866426,0,0,1,157.365,-47.9149)">
                    <g transform="matrix(33.3333,0,0,33.3333,48.2729,247.957)">
                    </g>
                    <text x="-136.965px" y="247.957px" style="font-family:'ArialMT', 'Arial';font-size:33.333px;fill:rgb(79,92,32);" svgjs:data="{&quot;leading&quot;:&quot;1.3&quot;}">setariaviridis</text>
                </g>
            </g>
            <g transform="matrix(1.0829,0,0,1.0829,-22.5853,-14.1445)">
                <g>
                    <g transform="matrix(0.14569,-0.0787731,0.131936,0.244015,-26.5204,-104.854)">
                        <path d="M60.605,1004.43L82.02,1120.08L60.813,1141.92C57.699,1141.92 57.83,1141.27 57.83,1139.41L49.361,1004.8C49.361,1003.02 51.701,1001.54 54.69,1001.44C57.679,1001.34 60.276,1002.66 60.605,1004.43Z" style="fill:rgb(124,153,24);"></path>
                    </g>
                    <g transform="matrix(-0.183046,-0.098971,-0.166109,0.307217,328.765,-194.841)">
                        <path d="M52.417,1012.41L55.368,1117.52L84.803,1091.1L61.366,1012.7C61.366,1011.28 59.504,1010.11 57.125,1010.03C54.745,1009.95 52.679,1011 52.417,1012.41Z" style="fill:rgb(124,153,24);"></path>
                    </g>
                    <g transform="matrix(0.242998,0,0,0.882764,45.8987,-777.436)">
                        <path d="M337.124,970.379C360.247,997.493 366.508,1043 362.559,1072.69C362.559,1073.32 360.715,1073.83 358.444,1073.83C356.173,1073.83 354.329,1073.32 354.329,1072.69C356.663,1043.31 354.436,998.216 329.152,970.945C329.152,970.32 330.546,969.998 332.725,969.822C334.852,969.649 336.568,969.727 337.124,970.379Z" style="fill:rgb(123,208,79);"></path>
                    </g>
                    <g transform="matrix(0.975213,-0.22127,0.22127,0.975213,-11.2419,13.3167)">
                        <g transform="matrix(0.428571,0,0,0.428571,86.53,-345.345)">
                            <path d="M90,971.696L90,1017.91C90,1024.48 84.672,1029.8 78.108,1029.8C71.545,1029.8 66.217,1024.48 66.217,1017.91L66.217,971.696C66.217,965.132 71.545,959.804 78.108,959.804C84.672,959.804 90,965.132 90,971.696Z" style="fill:rgb(191,223,149);"></path>
                        </g>
                        <g transform="matrix(0.242998,0,0,0.0730804,34.8987,17.0142)">
                            <path d="M354.35,986.122L354.35,1067.65C354.35,1071.13 353.498,1073.97 352.449,1073.97L348.019,1073.97C346.97,1073.97 346.119,1071.13 346.119,1067.65L346.119,986.122C346.119,982.635 346.97,979.804 348.019,979.804L352.449,979.804C353.498,979.804 354.35,982.635 354.35,986.122Z" style="fill:rgb(154,193,102);"></path>
                        </g>
                        <g transform="matrix(0.251858,0,0,0.357143,100.333,-273.787)">
                            <path d="M90,968.19L90,1021.42C90,1026.05 84.672,1029.8 78.108,1029.8C71.545,1029.8 66.217,1026.05 66.217,1021.42L66.217,968.19C66.217,963.562 71.545,959.804 78.108,959.804C84.672,959.804 90,963.562 90,968.19Z" style="fill:rgb(154,193,102);"></path>
                        </g>
                    </g>
                </g>
                <g transform="matrix(1,0,0,1,-18.5519,0)">
                    <g transform="matrix(0.242998,0,0,0.882764,66.3418,-777.436)">
                        <path d="M284.817,1004.25C320.251,1022.11 347.786,1044.84 354.35,1072.83C354.35,1073.46 352.506,1073.97 350.234,1073.97C347.963,1073.97 346.119,1073.46 346.119,1072.83C343.131,1046.93 316.694,1024.03 277.248,1004.98C277.248,1004.36 277.217,1004 279.306,1003.76C281.295,1003.53 282.557,1003.67 284.817,1004.25Z" style="fill:rgb(123,208,79);"></path>
                    </g>
                    <g transform="matrix(0.38035,-0.197502,0.197502,0.38035,-97.9721,-265.833)">
                        <path d="M90,971.696L90,1017.91C90,1024.48 84.672,1029.8 78.108,1029.8C71.545,1029.8 66.217,1024.48 66.217,1017.91L66.217,971.696C66.217,965.132 71.545,959.804 78.108,959.804C84.672,959.804 90,965.132 90,971.696Z" style="fill:rgb(191,223,149);"></path>
                    </g>
                    <g transform="matrix(0.215657,-0.111983,0.0336783,0.0648576,23.195,79.5479)">
                        <path d="M354.35,986.122L354.35,1067.65C354.35,1071.13 353.498,1073.97 352.449,1073.97L348.019,1073.97C346.97,1073.97 346.119,1071.13 346.119,1067.65L346.119,986.122C346.119,982.635 346.97,979.804 348.019,979.804L352.449,979.804C353.498,979.804 354.35,982.635 354.35,986.122Z" style="fill:rgb(154,193,102);"></path>
                    </g>
                    <g transform="matrix(0.22352,-0.116066,0.164585,0.316959,-52.7459,-208.688)">
                        <path d="M90,968.19L90,1021.42C90,1026.05 84.672,1029.8 78.108,1029.8C71.545,1029.8 66.217,1026.05 66.217,1021.42L66.217,968.19C66.217,963.562 71.545,959.804 78.108,959.804C84.672,959.804 90,963.562 90,968.19Z" style="fill:rgb(154,193,102);"></path>
                    </g>
                </g>
                <g transform="matrix(1,0,0,1,23,0)">
                    <g transform="matrix(-0.252649,-0.136605,-0.186715,0.345327,344.55,-218.026)">
                        <path d="M76.778,1004.49C75.19,1047.84 82.685,1096.51 67.61,1143.15C67.484,1143.83 67.766,1144.52 68.383,1145.04C69.001,1145.56 69.893,1145.85 70.832,1145.85L91.435,1110.59C94.168,1073.98 85.528,1039.62 83.252,1004.8C83.252,1003.55 81.926,1002.51 80.219,1002.43C78.512,1002.35 77.008,1003.24 76.778,1004.49Z" style="fill:rgb(191,223,149);"></path>
                    </g>
                    <g transform="matrix(0.242998,0,0,0.813734,34.8987,-703.3)">
                        <path d="M369.859,984.386C333.88,1010.6 326.684,1040.72 326.684,1072.59C326.684,1073.26 324.84,1073.82 322.569,1073.82C320.297,1073.82 318.453,1073.26 318.453,1072.59C318.453,1041.73 325.497,1012.15 361.945,983.667C362.742,983.044 365.458,982.626 367.569,982.876C369.463,983.101 369.859,983.707 369.859,984.386Z" style="fill:rgb(123,208,79);"></path>
                    </g>
                    <g transform="matrix(0.395311,0.165538,-0.165538,0.395311,262.723,-320.955)">
                        <path d="M90,971.696L90,1017.91C90,1024.48 84.672,1029.8 78.108,1029.8C71.545,1029.8 66.217,1024.48 66.217,1017.91L66.217,971.696C66.217,965.132 71.545,959.804 78.108,959.804C84.672,959.804 90,965.132 90,971.696Z" style="fill:rgb(191,223,149);"></path>
                    </g>
                    <g transform="matrix(0.22414,0.0938592,-0.0282276,0.0674088,75.1359,-6.66056)">
                        <path d="M354.35,986.122L354.35,1067.65C354.35,1071.13 353.498,1073.97 352.449,1073.97L348.019,1073.97C346.97,1073.97 346.119,1071.13 346.119,1067.65L346.119,986.122C346.119,982.635 346.97,979.804 348.019,979.804L352.449,979.804C353.498,979.804 354.35,982.635 354.35,986.122Z" style="fill:rgb(154,193,102);"></path>
                    </g>
                    <g transform="matrix(0.232312,0.0972814,-0.137948,0.329426,247.815,-249.619)">
                        <path d="M90,968.19L90,1021.42C90,1026.05 84.672,1029.8 78.108,1029.8C71.545,1029.8 66.217,1026.05 66.217,1021.42L66.217,968.19C66.217,963.562 71.545,959.804 78.108,959.804C84.672,959.804 90,963.562 90,968.19Z" style="fill:rgb(154,193,102);"></path>
                    </g>
                </g>
            </g>
        </g>
    </g>
</svg><style>@media (prefers-color-scheme: light) { :root { filter: none; } }
@media (prefers-color-scheme: dark) { :root { filter: none; } }
</style></svg>